<svg width="661" height="196" viewBox="0 0 661 196" fill="none" xmlns="http://www.w3.org/2000/svg">
<g filter="url(#filter0_d_1_5)">
<mask id="path-1-outside-1_1_5" maskUnits="userSpaceOnUse" x="38" y="36" width="604" height="127" fill="black">
<rect fill="white" x="38" y="36" width="604" height="127"/>
<path d="M85.88 147.536C79.3947 147.536 73.592 146.299 68.472 143.824C63.4373 141.349 59.6827 137.296 57.208 131.664L70.904 121.296C72.44 124.88 74.4027 127.568 76.792 129.36C79.1813 131.152 82.5093 132.048 86.776 132.048C91.8107 132.048 95.6507 130.896 98.296 128.592C101.027 126.203 102.392 122.917 102.392 118.736C102.392 115.749 101.667 113.531 100.216 112.08C98.7653 110.629 96.5467 109.435 93.56 108.496L88.696 106.96C82.7227 105.083 78.0293 102.48 74.616 99.152C71.288 95.7387 69.624 90.7893 69.624 84.304C69.624 79.8667 70.392 75.856 71.928 72.272C73.464 68.688 75.64 65.616 78.456 63.056C81.3573 60.496 84.8133 58.5333 88.824 57.168C92.8347 55.8027 97.3147 55.12 102.264 55.12C108.493 55.12 113.912 56.1867 118.52 58.32C123.128 60.4533 126.669 63.568 129.144 67.664L116.216 78.928C114.851 76.368 113.101 74.3627 110.968 72.912C108.92 71.376 105.763 70.608 101.496 70.608C97.144 70.608 93.688 71.5467 91.128 73.424C88.6533 75.216 87.416 78.1173 87.416 82.128C87.416 84.8587 88.0987 86.864 89.464 88.144C90.9147 89.3387 92.8773 90.32 95.352 91.088L100.216 92.624C103.373 93.648 106.189 94.8 108.664 96.08C111.224 97.36 113.357 98.9387 115.064 100.816C116.856 102.608 118.221 104.741 119.16 107.216C120.099 109.691 120.568 112.592 120.568 115.92C120.568 120.187 119.8 124.24 118.264 128.08C116.813 131.92 114.637 135.291 111.736 138.192C108.835 141.008 105.208 143.269 100.856 144.976C96.5893 146.683 91.5973 147.536 85.88 147.536ZM153.255 147.536C148.562 147.536 144.679 146.853 141.607 145.488C138.62 144.123 136.231 142.245 134.439 139.856C132.732 137.381 131.538 134.523 130.855 131.28C130.172 128.037 129.831 124.539 129.831 120.784C129.831 118.821 129.916 116.731 130.087 114.512C130.258 112.293 130.556 110.203 130.983 108.24C131.922 103.461 133.202 99.1947 134.823 95.44C136.53 91.6 138.663 88.3573 141.223 85.712C143.783 82.9813 146.812 80.8907 150.311 79.44C153.895 77.9893 157.991 77.264 162.599 77.264C167.292 77.264 171.132 77.9467 174.119 79.312C177.191 80.6773 179.58 82.5973 181.287 85.072C183.079 87.4613 184.316 90.2773 184.999 93.52C185.682 96.7627 186.023 100.261 186.023 104.016C186.023 105.979 185.938 108.069 185.767 110.288C185.596 112.507 185.298 114.597 184.871 116.56C183.932 121.339 182.61 125.648 180.903 129.488C179.282 133.243 177.191 136.485 174.631 139.216C172.071 141.861 168.999 143.909 165.415 145.36C161.916 146.811 157.863 147.536 153.255 147.536ZM154.663 133.84C156.284 133.84 157.692 133.584 158.887 133.072C160.167 132.475 161.234 131.579 162.087 130.384C163.026 129.104 163.794 127.483 164.391 125.52C165.074 123.472 165.714 120.955 166.311 117.968L168.615 106.448C169.042 104.315 169.255 102.267 169.255 100.304C169.255 97.0613 168.615 94.7147 167.335 93.264C166.14 91.728 164.092 90.96 161.191 90.96C157.863 90.96 155.346 92.1547 153.639 94.544C152.018 96.848 150.652 100.944 149.543 106.832L147.239 118.352C146.812 120.485 146.599 122.533 146.599 124.496C146.599 127.739 147.196 130.128 148.391 131.664C149.671 133.115 151.762 133.84 154.663 133.84ZM203.068 146C199.484 146 196.924 145.317 195.388 143.952C193.852 142.587 193.084 140.453 193.084 137.552C193.084 136.869 193.127 136.059 193.212 135.12C193.297 134.181 193.425 133.328 193.596 132.56L209.852 51.28H226.876L210.62 132.432H217.788L215.1 146H203.068ZM235.544 146L229.272 78.8H246.296L248.472 105.68L248.088 131.28H249.88L258.712 105.68L270.488 78.8H288.28L257.176 146H235.544ZM310.541 147.536C301.666 147.536 295.266 145.232 291.341 140.624C287.501 136.016 285.581 129.403 285.581 120.784C285.581 118.821 285.666 116.688 285.837 114.384C286.008 112.08 286.306 110.032 286.733 108.24C288.866 98.1707 292.621 90.4907 297.997 85.2C303.373 79.9093 310.541 77.264 319.501 77.264C326.157 77.264 331.448 78.8853 335.373 82.128C339.298 85.3707 341.261 89.936 341.261 95.824C341.261 103.419 338.232 109.093 332.173 112.848C326.2 116.603 316.429 118.651 302.861 118.992C302.69 119.76 302.562 120.699 302.477 121.808C302.392 122.917 302.349 123.813 302.349 124.496C302.349 127.568 302.946 129.915 304.141 131.536C305.421 133.072 307.725 133.84 311.053 133.84C314.21 133.84 317.026 133.2 319.501 131.92C322.061 130.64 324.578 128.123 327.053 124.368L337.293 132.688C333.709 138.149 329.784 141.989 325.517 144.208C321.336 146.427 316.344 147.536 310.541 147.536ZM317.325 90.32C314.253 90.32 311.821 91.4293 310.029 93.648C308.237 95.8667 306.872 99.28 305.933 103.888L305.037 108.112C309.133 107.856 312.461 107.472 315.021 106.96C317.581 106.363 319.586 105.637 321.037 104.784C322.488 103.845 323.469 102.779 323.981 101.584C324.493 100.304 324.749 98.896 324.749 97.36C324.749 92.6667 322.274 90.32 317.325 90.32Z"/>
<path d="M361.459 56.656H390.899C396.36 56.656 400.84 57.424 404.339 58.96C407.923 60.496 410.782 62.6293 412.915 65.36C415.048 68.0053 416.542 71.12 417.395 74.704C418.248 78.288 418.675 82.128 418.675 86.224C418.675 89.8933 418.376 93.6053 417.779 97.36C417.267 101.029 416.67 104.571 415.987 107.984C414.707 113.787 412.958 119.035 410.739 123.728C408.606 128.421 405.832 132.432 402.419 135.76C399.091 139.003 395.08 141.52 390.387 143.312C385.779 145.104 380.446 146 374.387 146H343.539L361.459 56.656ZM376.691 130.64C379.763 130.64 382.366 130.299 384.499 129.616C386.718 128.848 388.595 127.611 390.131 125.904C391.752 124.197 393.075 121.936 394.099 119.12C395.208 116.219 396.232 112.592 397.171 108.24L399.603 96.336C400.03 94.3733 400.328 92.5813 400.499 90.96C400.755 89.3387 400.883 87.9733 400.883 86.864C400.883 81.6587 399.944 77.904 398.067 75.6C396.275 73.2107 393.118 72.016 388.595 72.016H375.923L364.147 130.64H376.691ZM448.541 147.536C439.666 147.536 433.266 145.232 429.341 140.624C425.501 136.016 423.581 129.403 423.581 120.784C423.581 118.821 423.666 116.688 423.837 114.384C424.008 112.08 424.306 110.032 424.733 108.24C426.866 98.1707 430.621 90.4907 435.997 85.2C441.373 79.9093 448.541 77.264 457.501 77.264C464.157 77.264 469.448 78.8853 473.373 82.128C477.298 85.3707 479.261 89.936 479.261 95.824C479.261 103.419 476.232 109.093 470.173 112.848C464.2 116.603 454.429 118.651 440.861 118.992C440.69 119.76 440.562 120.699 440.477 121.808C440.392 122.917 440.349 123.813 440.349 124.496C440.349 127.568 440.946 129.915 442.141 131.536C443.421 133.072 445.725 133.84 449.053 133.84C452.21 133.84 455.026 133.2 457.501 131.92C460.061 130.64 462.578 128.123 465.053 124.368L475.293 132.688C471.709 138.149 467.784 141.989 463.517 144.208C459.336 146.427 454.344 147.536 448.541 147.536ZM455.325 90.32C452.253 90.32 449.821 91.4293 448.029 93.648C446.237 95.8667 444.872 99.28 443.933 103.888L443.037 108.112C447.133 107.856 450.461 107.472 453.021 106.96C455.581 106.363 457.586 105.637 459.037 104.784C460.488 103.845 461.469 102.779 461.981 101.584C462.493 100.304 462.749 98.896 462.749 97.36C462.749 92.6667 460.274 90.32 455.325 90.32ZM504.323 147.536C493.059 147.536 485.038 143.611 480.259 135.76L491.011 125.776C492.462 128.507 494.211 130.555 496.259 131.92C498.307 133.285 501.208 133.968 504.963 133.968C508.632 133.968 511.278 133.328 512.899 132.048C514.52 130.768 515.331 128.976 515.331 126.672C515.331 124.88 514.819 123.557 513.795 122.704C512.856 121.851 511.363 121.083 509.315 120.4L503.427 118.352C501.208 117.584 499.203 116.731 497.411 115.792C495.619 114.768 494.083 113.573 492.803 112.208C491.523 110.843 490.542 109.221 489.859 107.344C489.176 105.467 488.835 103.205 488.835 100.56C488.835 97.4027 489.347 94.416 490.371 91.6C491.395 88.784 492.974 86.3093 495.107 84.176C497.24 82.0427 499.928 80.3787 503.171 79.184C506.499 77.904 510.382 77.264 514.819 77.264C524.632 77.264 532.056 80.8053 537.091 87.888L526.339 97.872C524.888 95.7387 523.139 94.0747 521.091 92.88C519.128 91.6 516.696 90.96 513.795 90.96C511.064 90.96 508.931 91.5573 507.395 92.752C505.944 93.9467 505.219 95.7387 505.219 98.128C505.219 99.8347 505.731 101.072 506.755 101.84C507.779 102.608 509.23 103.333 511.107 104.016L516.995 106.064C522.03 107.771 525.784 109.904 528.259 112.464C530.734 115.024 531.971 118.693 531.971 123.472C531.971 126.885 531.374 130.085 530.179 133.072C529.07 135.973 527.363 138.491 525.059 140.624C522.755 142.757 519.854 144.464 516.355 145.744C512.942 146.939 508.931 147.536 504.323 147.536ZM558.73 51.28H575.754L566.41 98L563.082 109.904H564.874L572.042 98.128L588.042 78.8H607.754L583.306 106.32L589.45 132.432H596.874L594.186 146H584.97C581.983 146 579.637 145.36 577.93 144.08C576.309 142.8 575.114 140.539 574.346 137.296L569.738 117.2L560.65 126.928L556.81 146H539.786L558.73 51.28Z"/>
</mask>
<path d="M85.88 147.536C79.3947 147.536 73.592 146.299 68.472 143.824C63.4373 141.349 59.6827 137.296 57.208 131.664L70.904 121.296C72.44 124.88 74.4027 127.568 76.792 129.36C79.1813 131.152 82.5093 132.048 86.776 132.048C91.8107 132.048 95.6507 130.896 98.296 128.592C101.027 126.203 102.392 122.917 102.392 118.736C102.392 115.749 101.667 113.531 100.216 112.08C98.7653 110.629 96.5467 109.435 93.56 108.496L88.696 106.96C82.7227 105.083 78.0293 102.48 74.616 99.152C71.288 95.7387 69.624 90.7893 69.624 84.304C69.624 79.8667 70.392 75.856 71.928 72.272C73.464 68.688 75.64 65.616 78.456 63.056C81.3573 60.496 84.8133 58.5333 88.824 57.168C92.8347 55.8027 97.3147 55.12 102.264 55.12C108.493 55.12 113.912 56.1867 118.52 58.32C123.128 60.4533 126.669 63.568 129.144 67.664L116.216 78.928C114.851 76.368 113.101 74.3627 110.968 72.912C108.92 71.376 105.763 70.608 101.496 70.608C97.144 70.608 93.688 71.5467 91.128 73.424C88.6533 75.216 87.416 78.1173 87.416 82.128C87.416 84.8587 88.0987 86.864 89.464 88.144C90.9147 89.3387 92.8773 90.32 95.352 91.088L100.216 92.624C103.373 93.648 106.189 94.8 108.664 96.08C111.224 97.36 113.357 98.9387 115.064 100.816C116.856 102.608 118.221 104.741 119.16 107.216C120.099 109.691 120.568 112.592 120.568 115.92C120.568 120.187 119.8 124.24 118.264 128.08C116.813 131.92 114.637 135.291 111.736 138.192C108.835 141.008 105.208 143.269 100.856 144.976C96.5893 146.683 91.5973 147.536 85.88 147.536ZM153.255 147.536C148.562 147.536 144.679 146.853 141.607 145.488C138.62 144.123 136.231 142.245 134.439 139.856C132.732 137.381 131.538 134.523 130.855 131.28C130.172 128.037 129.831 124.539 129.831 120.784C129.831 118.821 129.916 116.731 130.087 114.512C130.258 112.293 130.556 110.203 130.983 108.24C131.922 103.461 133.202 99.1947 134.823 95.44C136.53 91.6 138.663 88.3573 141.223 85.712C143.783 82.9813 146.812 80.8907 150.311 79.44C153.895 77.9893 157.991 77.264 162.599 77.264C167.292 77.264 171.132 77.9467 174.119 79.312C177.191 80.6773 179.58 82.5973 181.287 85.072C183.079 87.4613 184.316 90.2773 184.999 93.52C185.682 96.7627 186.023 100.261 186.023 104.016C186.023 105.979 185.938 108.069 185.767 110.288C185.596 112.507 185.298 114.597 184.871 116.56C183.932 121.339 182.61 125.648 180.903 129.488C179.282 133.243 177.191 136.485 174.631 139.216C172.071 141.861 168.999 143.909 165.415 145.36C161.916 146.811 157.863 147.536 153.255 147.536ZM154.663 133.84C156.284 133.84 157.692 133.584 158.887 133.072C160.167 132.475 161.234 131.579 162.087 130.384C163.026 129.104 163.794 127.483 164.391 125.52C165.074 123.472 165.714 120.955 166.311 117.968L168.615 106.448C169.042 104.315 169.255 102.267 169.255 100.304C169.255 97.0613 168.615 94.7147 167.335 93.264C166.14 91.728 164.092 90.96 161.191 90.96C157.863 90.96 155.346 92.1547 153.639 94.544C152.018 96.848 150.652 100.944 149.543 106.832L147.239 118.352C146.812 120.485 146.599 122.533 146.599 124.496C146.599 127.739 147.196 130.128 148.391 131.664C149.671 133.115 151.762 133.84 154.663 133.84ZM203.068 146C199.484 146 196.924 145.317 195.388 143.952C193.852 142.587 193.084 140.453 193.084 137.552C193.084 136.869 193.127 136.059 193.212 135.12C193.297 134.181 193.425 133.328 193.596 132.56L209.852 51.28H226.876L210.62 132.432H217.788L215.1 146H203.068ZM235.544 146L229.272 78.8H246.296L248.472 105.68L248.088 131.28H249.88L258.712 105.68L270.488 78.8H288.28L257.176 146H235.544ZM310.541 147.536C301.666 147.536 295.266 145.232 291.341 140.624C287.501 136.016 285.581 129.403 285.581 120.784C285.581 118.821 285.666 116.688 285.837 114.384C286.008 112.08 286.306 110.032 286.733 108.24C288.866 98.1707 292.621 90.4907 297.997 85.2C303.373 79.9093 310.541 77.264 319.501 77.264C326.157 77.264 331.448 78.8853 335.373 82.128C339.298 85.3707 341.261 89.936 341.261 95.824C341.261 103.419 338.232 109.093 332.173 112.848C326.2 116.603 316.429 118.651 302.861 118.992C302.69 119.76 302.562 120.699 302.477 121.808C302.392 122.917 302.349 123.813 302.349 124.496C302.349 127.568 302.946 129.915 304.141 131.536C305.421 133.072 307.725 133.84 311.053 133.84C314.21 133.84 317.026 133.2 319.501 131.92C322.061 130.64 324.578 128.123 327.053 124.368L337.293 132.688C333.709 138.149 329.784 141.989 325.517 144.208C321.336 146.427 316.344 147.536 310.541 147.536ZM317.325 90.32C314.253 90.32 311.821 91.4293 310.029 93.648C308.237 95.8667 306.872 99.28 305.933 103.888L305.037 108.112C309.133 107.856 312.461 107.472 315.021 106.96C317.581 106.363 319.586 105.637 321.037 104.784C322.488 103.845 323.469 102.779 323.981 101.584C324.493 100.304 324.749 98.896 324.749 97.36C324.749 92.6667 322.274 90.32 317.325 90.32Z" fill="#212529"/>
<path d="M361.459 56.656H390.899C396.36 56.656 400.84 57.424 404.339 58.96C407.923 60.496 410.782 62.6293 412.915 65.36C415.048 68.0053 416.542 71.12 417.395 74.704C418.248 78.288 418.675 82.128 418.675 86.224C418.675 89.8933 418.376 93.6053 417.779 97.36C417.267 101.029 416.67 104.571 415.987 107.984C414.707 113.787 412.958 119.035 410.739 123.728C408.606 128.421 405.832 132.432 402.419 135.76C399.091 139.003 395.08 141.52 390.387 143.312C385.779 145.104 380.446 146 374.387 146H343.539L361.459 56.656ZM376.691 130.64C379.763 130.64 382.366 130.299 384.499 129.616C386.718 128.848 388.595 127.611 390.131 125.904C391.752 124.197 393.075 121.936 394.099 119.12C395.208 116.219 396.232 112.592 397.171 108.24L399.603 96.336C400.03 94.3733 400.328 92.5813 400.499 90.96C400.755 89.3387 400.883 87.9733 400.883 86.864C400.883 81.6587 399.944 77.904 398.067 75.6C396.275 73.2107 393.118 72.016 388.595 72.016H375.923L364.147 130.64H376.691ZM448.541 147.536C439.666 147.536 433.266 145.232 429.341 140.624C425.501 136.016 423.581 129.403 423.581 120.784C423.581 118.821 423.666 116.688 423.837 114.384C424.008 112.08 424.306 110.032 424.733 108.24C426.866 98.1707 430.621 90.4907 435.997 85.2C441.373 79.9093 448.541 77.264 457.501 77.264C464.157 77.264 469.448 78.8853 473.373 82.128C477.298 85.3707 479.261 89.936 479.261 95.824C479.261 103.419 476.232 109.093 470.173 112.848C464.2 116.603 454.429 118.651 440.861 118.992C440.69 119.76 440.562 120.699 440.477 121.808C440.392 122.917 440.349 123.813 440.349 124.496C440.349 127.568 440.946 129.915 442.141 131.536C443.421 133.072 445.725 133.84 449.053 133.84C452.21 133.84 455.026 133.2 457.501 131.92C460.061 130.64 462.578 128.123 465.053 124.368L475.293 132.688C471.709 138.149 467.784 141.989 463.517 144.208C459.336 146.427 454.344 147.536 448.541 147.536ZM455.325 90.32C452.253 90.32 449.821 91.4293 448.029 93.648C446.237 95.8667 444.872 99.28 443.933 103.888L443.037 108.112C447.133 107.856 450.461 107.472 453.021 106.96C455.581 106.363 457.586 105.637 459.037 104.784C460.488 103.845 461.469 102.779 461.981 101.584C462.493 100.304 462.749 98.896 462.749 97.36C462.749 92.6667 460.274 90.32 455.325 90.32ZM504.323 147.536C493.059 147.536 485.038 143.611 480.259 135.76L491.011 125.776C492.462 128.507 494.211 130.555 496.259 131.92C498.307 133.285 501.208 133.968 504.963 133.968C508.632 133.968 511.278 133.328 512.899 132.048C514.52 130.768 515.331 128.976 515.331 126.672C515.331 124.88 514.819 123.557 513.795 122.704C512.856 121.851 511.363 121.083 509.315 120.4L503.427 118.352C501.208 117.584 499.203 116.731 497.411 115.792C495.619 114.768 494.083 113.573 492.803 112.208C491.523 110.843 490.542 109.221 489.859 107.344C489.176 105.467 488.835 103.205 488.835 100.56C488.835 97.4027 489.347 94.416 490.371 91.6C491.395 88.784 492.974 86.3093 495.107 84.176C497.24 82.0427 499.928 80.3787 503.171 79.184C506.499 77.904 510.382 77.264 514.819 77.264C524.632 77.264 532.056 80.8053 537.091 87.888L526.339 97.872C524.888 95.7387 523.139 94.0747 521.091 92.88C519.128 91.6 516.696 90.96 513.795 90.96C511.064 90.96 508.931 91.5573 507.395 92.752C505.944 93.9467 505.219 95.7387 505.219 98.128C505.219 99.8347 505.731 101.072 506.755 101.84C507.779 102.608 509.23 103.333 511.107 104.016L516.995 106.064C522.03 107.771 525.784 109.904 528.259 112.464C530.734 115.024 531.971 118.693 531.971 123.472C531.971 126.885 531.374 130.085 530.179 133.072C529.07 135.973 527.363 138.491 525.059 140.624C522.755 142.757 519.854 144.464 516.355 145.744C512.942 146.939 508.931 147.536 504.323 147.536ZM558.73 51.28H575.754L566.41 98L563.082 109.904H564.874L572.042 98.128L588.042 78.8H607.754L583.306 106.32L589.45 132.432H596.874L594.186 146H584.97C581.983 146 579.637 145.36 577.93 144.08C576.309 142.8 575.114 140.539 574.346 137.296L569.738 117.2L560.65 126.928L556.81 146H539.786L558.73 51.28Z" fill="#4DABF7"/>
<path d="M68.472 143.824L61.8552 157.286L61.8998 157.308L61.9445 157.329L68.472 143.824ZM57.208 131.664L48.1544 119.704L38.7102 126.854L43.4752 137.698L57.208 131.664ZM70.904 121.296L84.6912 115.387L77.1381 97.7634L61.8504 109.336L70.904 121.296ZM76.792 129.36L85.792 117.36L85.792 117.36L76.792 129.36ZM98.296 128.592L108.148 139.903L108.161 139.892L108.174 139.881L98.296 128.592ZM100.216 112.08L110.823 101.473L110.823 101.473L100.216 112.08ZM93.56 108.496L89.043 122.8L89.0528 122.803L89.0626 122.806L93.56 108.496ZM88.696 106.96L93.213 92.6563L93.2032 92.6532L93.1934 92.6501L88.696 106.96ZM74.616 99.152L63.876 109.624L64.0085 109.759L64.1445 109.892L74.616 99.152ZM78.456 63.056L68.5317 51.8084L68.4482 51.8821L68.3659 51.9569L78.456 63.056ZM88.824 57.168L93.658 71.3678L93.658 71.3677L88.824 57.168ZM118.52 58.32L124.822 44.708L124.822 44.708L118.52 58.32ZM129.144 67.664L138.998 78.9734L148.5 70.6943L141.983 59.9073L129.144 67.664ZM116.216 78.928L102.981 85.9868L111.854 102.624L126.07 90.2374L116.216 78.928ZM110.968 72.912L101.968 84.912L102.246 85.1205L102.533 85.3159L110.968 72.912ZM91.128 73.424L99.9257 85.5731L99.9621 85.5467L99.9985 85.5201L91.128 73.424ZM89.464 88.144L79.2049 99.0871L79.5564 99.4166L79.9284 99.723L89.464 88.144ZM95.352 91.088L99.869 76.7843L99.8335 76.7731L99.798 76.762L95.352 91.088ZM100.216 92.624L104.844 78.3557L104.788 78.3377L104.733 78.3203L100.216 92.624ZM108.664 96.08L101.773 109.403L101.864 109.45L101.956 109.496L108.664 96.08ZM115.064 100.816L103.965 110.906L104.205 111.17L104.457 111.423L115.064 100.816ZM119.16 107.216L105.135 112.536L105.135 112.536L119.16 107.216ZM118.264 128.08L104.337 122.509L104.283 122.644L104.232 122.779L118.264 128.08ZM111.736 138.192L122.183 148.956L122.263 148.878L122.343 148.799L111.736 138.192ZM100.856 144.976L95.3797 131.011L95.3324 131.03L95.2851 131.049L100.856 144.976ZM85.88 132.536C81.337 132.536 77.8157 131.68 74.9995 130.319L61.9445 157.329C69.3683 160.917 77.4523 162.536 85.88 162.536V132.536ZM75.0888 130.362C73.5412 129.602 72.1403 128.36 70.9408 125.63L43.4752 137.698C47.225 146.232 53.3335 153.097 61.8552 157.286L75.0888 130.362ZM66.2616 143.624L79.9576 133.256L61.8504 109.336L48.1544 119.704L66.2616 143.624ZM57.1168 127.205C59.3798 132.485 62.7536 137.581 67.792 141.36L85.792 117.36C86.0518 117.555 85.5002 117.275 84.6912 115.387L57.1168 127.205ZM67.792 141.36C73.6808 145.777 80.6109 147.048 86.776 147.048V117.048C85.6608 117.048 85.1126 116.928 84.9796 116.892C84.8779 116.864 85.2438 116.949 85.792 117.36L67.792 141.36ZM86.776 147.048C93.8791 147.048 101.792 145.439 108.148 139.903L88.4443 117.281C88.9449 116.845 89.2896 116.766 89.1218 116.817C88.904 116.882 88.1889 117.048 86.776 117.048V147.048ZM108.174 139.881C114.671 134.195 117.392 126.513 117.392 118.736H87.392C87.392 119.192 87.3202 119.052 87.5165 118.58C87.6121 118.35 87.7484 118.098 87.9254 117.853C88.1018 117.609 88.2785 117.426 88.4184 117.303L108.174 139.881ZM117.392 118.736C117.392 113.584 116.151 106.802 110.823 101.473L89.6094 122.687C87.1824 120.26 87.392 117.914 87.392 118.736H117.392ZM110.823 101.473C106.998 97.6491 102.243 95.5016 98.0574 94.1861L89.0626 122.806C89.4507 122.928 89.7485 123.038 89.9676 123.128C90.1874 123.218 90.3096 123.28 90.3525 123.303C90.3956 123.326 90.3395 123.3 90.212 123.208C90.0837 123.115 89.8698 122.947 89.6094 122.687L110.823 101.473ZM98.077 94.1923L93.213 92.6563L84.179 121.264L89.043 122.8L98.077 94.1923ZM93.1934 92.6501C88.7874 91.2654 86.3737 89.666 85.0875 88.412L64.1445 109.892C69.685 115.294 76.6579 118.9 84.1986 121.27L93.1934 92.6501ZM85.356 88.6805C85.3555 88.6799 85.3536 88.6781 85.349 88.6721C85.3443 88.666 85.3315 88.6487 85.3118 88.6156C85.2742 88.5527 85.1893 88.3954 85.0899 88.0998C84.8838 87.4866 84.624 86.2986 84.624 84.304H54.624C54.624 93.2611 56.9535 102.523 63.876 109.624L85.356 88.6805ZM84.624 84.304C84.624 81.6189 85.0825 79.6571 85.7152 78.1808L58.1408 66.3632C55.7015 72.0549 54.624 78.1144 54.624 84.304H84.624ZM85.7152 78.1808C86.4262 76.5218 87.3597 75.2336 88.5461 74.1551L68.3659 51.9569C63.9203 55.9984 60.5018 60.8542 58.1408 66.3632L85.7152 78.1808ZM88.3803 74.3036C89.6609 73.1736 91.3433 72.1557 93.658 71.3678L83.9901 42.9682C78.2833 44.911 73.0538 47.8184 68.5317 51.8084L88.3803 74.3036ZM93.658 71.3677C95.8752 70.6129 98.6885 70.12 102.264 70.12V40.12C95.9408 40.12 89.7942 40.9924 83.99 42.9683L93.658 71.3677ZM102.264 70.12C106.799 70.12 109.981 70.8961 112.218 71.932L124.822 44.708C117.843 41.4772 110.187 40.12 102.264 40.12V70.12ZM112.218 71.932C114.287 72.8897 115.474 74.0444 116.305 75.4207L141.983 59.9073C137.865 53.0916 131.969 48.0169 124.822 44.708L112.218 71.932ZM119.29 56.3546L106.362 67.6186L126.07 90.2374L138.998 78.9734L119.29 56.3546ZM129.451 71.8692C127.087 67.4356 123.785 63.4879 119.403 60.5081L102.533 85.3159C102.506 85.2972 102.519 85.2983 102.576 85.3645C102.639 85.4364 102.786 85.6215 102.981 85.9868L129.451 71.8692ZM119.968 60.912C114.098 56.5093 107.039 55.608 101.496 55.608V85.608C102.119 85.608 102.596 85.6363 102.945 85.6724C103.295 85.7086 103.476 85.7487 103.519 85.759C103.635 85.7874 102.943 85.6434 101.968 84.912L119.968 60.912ZM101.496 55.608C95.114 55.608 88.1904 56.9772 82.2575 61.3279L99.9985 85.5201C99.6144 85.8017 99.3959 85.8353 99.5716 85.7876C99.778 85.7315 100.374 85.608 101.496 85.608V55.608ZM82.3303 61.2749C74.7922 66.7336 72.416 74.958 72.416 82.128H102.416C102.416 81.6168 102.5 81.9875 102.142 82.8283C101.729 83.7959 100.966 84.8198 99.9257 85.5731L82.3303 61.2749ZM72.416 82.128C72.416 87.0839 73.6524 93.8816 79.2049 99.0871L99.7231 77.2009C102.545 79.8464 102.416 82.6334 102.416 82.128H72.416ZM79.9284 99.723C83.3342 102.528 87.2298 104.273 90.906 105.414L99.798 76.762C99.2032 76.5775 98.8691 76.428 98.7322 76.3596C98.5958 76.2914 98.7239 76.338 98.9996 76.565L79.9284 99.723ZM90.835 105.392L95.699 106.928L104.733 78.3203L99.869 76.7843L90.835 105.392ZM95.5884 106.892C98.1094 107.71 100.148 108.563 101.773 109.403L115.555 82.7567C112.231 81.0373 108.637 79.5861 104.844 78.3557L95.5884 106.892ZM101.956 109.496C103.07 110.054 103.653 110.563 103.965 110.906L126.163 90.7259C123.061 87.3141 119.378 84.6664 115.372 82.6636L101.956 109.496ZM104.457 111.423C104.682 111.647 104.915 111.955 105.135 112.536L133.185 101.896C131.528 97.5273 129.03 93.5686 125.671 90.2094L104.457 111.423ZM105.135 112.536C105.287 112.936 105.568 113.961 105.568 115.92H135.568C135.568 111.223 134.91 106.445 133.185 101.896L105.135 112.536ZM105.568 115.92C105.568 118.34 105.142 120.497 104.337 122.509L132.191 133.651C134.458 127.983 135.568 122.033 135.568 115.92H105.568ZM104.232 122.779C103.533 124.628 102.525 126.19 101.129 127.585L122.343 148.799C126.75 144.391 130.093 139.212 132.296 133.381L104.232 122.779ZM101.289 127.428C100.021 128.659 98.1653 129.919 95.3797 131.011L106.332 158.941C112.251 156.62 117.648 153.357 122.183 148.956L101.289 127.428ZM95.2851 131.049C93.1649 131.897 90.1389 132.536 85.88 132.536V162.536C93.0558 162.536 100.014 161.468 106.427 158.903L95.2851 131.049ZM141.607 145.488L135.371 159.13L135.443 159.163L135.515 159.195L141.607 145.488ZM134.439 139.856L122.091 148.372L122.26 148.617L122.439 148.856L134.439 139.856ZM130.855 131.28L116.177 134.37L116.177 134.37L130.855 131.28ZM130.087 114.512L145.043 115.662L145.043 115.662L130.087 114.512ZM130.983 108.24L145.641 111.426L145.673 111.279L145.702 111.131L130.983 108.24ZM134.823 95.44L121.116 89.3479L121.084 89.4205L121.052 89.4935L134.823 95.44ZM141.223 85.712L152.002 96.1433L152.085 96.0579L152.166 95.9711L141.223 85.712ZM150.311 79.44L144.683 65.5358L144.624 65.5596L144.566 65.5839L150.311 79.44ZM174.119 79.312L167.883 92.9541L167.955 92.987L168.027 93.0192L174.119 79.312ZM181.287 85.072L168.939 93.588L169.108 93.8335L169.287 94.072L181.287 85.072ZM184.999 93.52L199.677 90.4298L199.677 90.4298L184.999 93.52ZM184.871 116.56L170.213 113.374L170.181 113.521L170.152 113.669L184.871 116.56ZM180.903 129.488L167.196 123.396L167.164 123.469L167.132 123.541L180.903 129.488ZM174.631 139.216L185.41 149.647L185.493 149.562L185.574 149.475L174.631 139.216ZM165.415 145.36L159.787 131.456L159.728 131.48L159.67 131.504L165.415 145.36ZM158.887 133.072L164.796 146.859L165.015 146.765L165.23 146.665L158.887 133.072ZM162.087 130.384L149.991 121.514L149.935 121.589L149.881 121.665L162.087 130.384ZM164.391 125.52L150.161 120.777L150.098 120.964L150.041 121.153L164.391 125.52ZM166.311 117.968L151.602 115.026L151.602 115.026L166.311 117.968ZM168.615 106.448L183.324 109.39L183.324 109.39L168.615 106.448ZM167.335 93.264L155.495 102.473L155.78 102.84L156.087 103.188L167.335 93.264ZM153.639 94.544L141.433 85.8254L141.402 85.8684L141.372 85.9116L153.639 94.544ZM149.543 106.832L164.252 109.774L164.268 109.692L164.284 109.609L149.543 106.832ZM147.239 118.352L132.53 115.41L132.53 115.41L147.239 118.352ZM148.391 131.664L136.551 140.873L136.836 141.24L137.143 141.588L148.391 131.664ZM153.255 132.536C149.884 132.536 148.252 132.027 147.699 131.781L135.515 159.195C141.106 161.68 147.239 162.536 153.255 162.536V132.536ZM147.843 131.846C146.904 131.416 146.582 131.046 146.439 130.856L122.439 148.856C125.88 153.444 130.337 156.829 135.371 159.13L147.843 131.846ZM146.787 131.34C146.319 130.662 145.848 129.687 145.533 128.19L116.177 134.37C117.227 139.358 119.145 144.101 122.091 148.372L146.787 131.34ZM145.533 128.19C145.091 126.087 144.831 123.635 144.831 120.784H114.831C114.831 125.442 115.254 129.988 116.177 134.37L145.533 128.19ZM144.831 120.784C144.831 119.252 144.898 117.548 145.043 115.662L115.131 113.362C114.935 115.913 114.831 118.391 114.831 120.784H144.831ZM145.043 115.662C145.166 114.056 145.374 112.651 145.641 111.426L116.325 105.054C115.738 107.754 115.349 110.53 115.131 113.362L145.043 115.662ZM145.702 111.131C146.472 107.209 147.468 103.995 148.594 101.387L121.052 89.4935C118.936 94.3948 117.371 99.7132 116.264 105.349L145.702 111.131ZM148.53 101.532C149.622 99.0744 150.825 97.3598 152.002 96.1433L130.444 75.2807C126.501 79.3549 123.437 84.1256 121.116 89.3479L148.53 101.532ZM152.166 95.9711C153.251 94.814 154.502 93.9406 156.056 93.2961L144.566 65.5839C139.123 67.8407 134.315 71.1487 130.28 75.4529L152.166 95.9711ZM155.939 93.3442C157.427 92.7418 159.558 92.264 162.599 92.264V62.264C156.424 62.264 150.363 63.2369 144.683 65.5358L155.939 93.3442ZM162.599 92.264C165.996 92.264 167.506 92.7818 167.883 92.9541L180.355 65.6699C174.759 63.1115 168.588 62.264 162.599 62.264V92.264ZM168.027 93.0192C168.492 93.2261 168.726 93.394 168.819 93.4686C168.904 93.5364 168.927 93.5705 168.939 93.588L193.635 76.556C190.18 71.5467 185.5 67.9553 180.211 65.6048L168.027 93.0192ZM169.287 94.072C169.628 94.5268 170.039 95.2728 170.321 96.6102L199.677 90.4298C198.593 85.2819 196.53 80.3958 193.287 76.072L169.287 94.072ZM170.321 96.6101C170.763 98.7129 171.023 101.165 171.023 104.016H201.023C201.023 99.3576 200.6 94.8125 199.677 90.4298L170.321 96.6101ZM171.023 104.016C171.023 105.548 170.956 107.252 170.811 109.138L200.723 111.438C200.919 108.887 201.023 106.409 201.023 104.016H171.023ZM170.811 109.138C170.688 110.744 170.48 112.149 170.213 113.374L199.529 119.746C200.116 117.046 200.505 114.27 200.723 111.438L170.811 109.138ZM170.152 113.669C169.397 117.516 168.381 120.729 167.196 123.396L194.61 135.58C196.838 130.567 198.468 125.162 199.59 119.451L170.152 113.669ZM167.132 123.541C166.134 125.853 164.959 127.602 163.688 128.957L185.574 149.475C189.423 145.369 192.43 140.632 194.674 135.435L167.132 123.541ZM163.852 128.785C162.821 129.85 161.53 130.75 159.787 131.456L171.043 159.264C176.468 157.068 181.321 153.872 185.41 149.647L163.852 128.785ZM159.67 131.504C158.341 132.055 156.307 132.536 153.255 132.536V162.536C159.419 162.536 165.492 161.566 171.16 159.216L159.67 131.504ZM154.663 148.84C157.829 148.84 161.333 148.343 164.796 146.859L152.978 119.285C154.051 118.825 154.74 118.84 154.663 118.84V148.84ZM165.23 146.665C168.946 144.931 171.999 142.314 174.293 139.103L149.881 121.665C150.468 120.844 151.388 120.019 152.544 119.479L165.23 146.665ZM174.183 139.254C176.365 136.279 177.788 133.019 178.741 129.887L150.041 121.153C149.926 121.528 149.839 121.727 149.811 121.787C149.783 121.846 149.83 121.733 149.991 121.514L174.183 139.254ZM178.621 130.263C179.562 127.441 180.346 124.28 181.02 120.91L151.602 115.026C151.082 117.629 150.585 119.503 150.161 120.777L178.621 130.263ZM181.02 120.91L183.324 109.39L153.906 103.506L151.602 115.026L181.02 120.91ZM183.324 109.39C183.924 106.391 184.255 103.354 184.255 100.304H154.255C154.255 101.179 154.16 102.239 153.906 103.506L183.324 109.39ZM184.255 100.304C184.255 95.6961 183.456 88.8633 178.583 83.3397L156.087 103.188C154.871 101.809 154.436 100.544 154.304 100.059C154.178 99.6002 154.255 99.6026 154.255 100.304H184.255ZM179.175 84.0549C173.956 77.3445 166.375 75.96 161.191 75.96V105.96C161.396 105.96 160.746 105.997 159.636 105.581C158.395 105.115 156.804 104.156 155.495 102.473L179.175 84.0549ZM161.191 75.96C153.765 75.96 146.363 78.9238 141.433 85.8254L165.845 103.263C165.298 104.028 164.409 104.852 163.238 105.407C162.134 105.931 161.325 105.96 161.191 105.96V75.96ZM141.372 85.9116C137.765 91.0372 135.96 97.9089 134.802 104.055L164.284 109.609C164.757 107.097 165.225 105.3 165.629 104.087C166.068 102.771 166.257 102.678 165.906 103.176L141.372 85.9116ZM134.834 103.89L132.53 115.41L161.948 121.294L164.252 109.774L134.834 103.89ZM132.53 115.41C131.931 118.409 131.599 121.446 131.599 124.496H161.599C161.599 123.621 161.694 122.561 161.948 121.294L132.53 115.41ZM131.599 124.496C131.599 129.042 132.337 135.456 136.551 140.873L160.231 122.455C161.208 123.711 161.521 124.771 161.599 125.082C161.675 125.384 161.599 125.253 161.599 124.496H131.599ZM137.143 141.588C142.445 147.597 149.626 148.84 154.663 148.84V118.84C153.897 118.84 156.897 118.633 159.639 121.74L137.143 141.588ZM195.388 143.952L205.353 132.741L205.353 132.741L195.388 143.952ZM193.596 132.56L208.239 135.814L208.273 135.658L208.305 135.502L193.596 132.56ZM209.852 51.28V36.28H197.555L195.143 48.3383L209.852 51.28ZM226.876 51.28L241.584 54.2262L245.179 36.28H226.876V51.28ZM210.62 132.432L195.912 129.486L192.317 147.432H210.62V132.432ZM217.788 132.432L232.502 135.347L236.051 117.432H217.788V132.432ZM215.1 146V161H227.42L229.814 148.915L215.1 146ZM203.068 131C202.155 131 201.99 130.905 202.325 130.994C202.674 131.088 203.941 131.485 205.353 132.741L185.423 155.163C191.122 160.23 198.301 161 203.068 161V131ZM205.353 132.741C206.647 133.89 207.398 135.205 207.773 136.247C208.114 137.194 208.084 137.732 208.084 137.552H178.084C178.084 142.919 179.538 149.933 185.423 155.163L205.353 132.741ZM208.084 137.552C208.084 137.456 208.092 137.121 208.15 136.478L178.274 133.762C178.161 134.996 178.084 136.282 178.084 137.552H208.084ZM208.15 136.478C208.189 136.057 208.231 135.849 208.239 135.814L178.953 129.306C178.62 130.807 178.406 132.306 178.274 133.762L208.15 136.478ZM208.305 135.502L224.561 54.2217L195.143 48.3383L178.887 129.618L208.305 135.502ZM209.852 66.28H226.876V36.28H209.852V66.28ZM212.168 48.3338L195.912 129.486L225.328 135.378L241.584 54.2262L212.168 48.3338ZM210.62 147.432H217.788V117.432H210.62V147.432ZM203.074 129.517L200.386 143.085L229.814 148.915L232.502 135.347L203.074 129.517ZM215.1 131H203.068V161H215.1V131ZM235.544 146L220.609 147.394L221.879 161H235.544V146ZM229.272 78.8V63.8H212.807L214.337 80.1939L229.272 78.8ZM246.296 78.8L261.247 77.5897L260.131 63.8H246.296V78.8ZM248.472 105.68L263.47 105.905L263.481 105.186L263.423 104.47L248.472 105.68ZM248.088 131.28L233.09 131.055L232.861 146.28H248.088V131.28ZM249.88 131.28V146.28H260.573L264.06 136.172L249.88 131.28ZM258.712 105.68L244.973 99.6609L244.73 100.216L244.532 100.788L258.712 105.68ZM270.488 78.8V63.8H260.683L256.749 72.7808L270.488 78.8ZM288.28 78.8L301.893 85.1007L311.752 63.8H288.28V78.8ZM257.176 146V161H266.762L270.789 152.301L257.176 146ZM250.479 144.606L244.207 77.4061L214.337 80.1939L220.609 147.394L250.479 144.606ZM229.272 93.8H246.296V63.8H229.272V93.8ZM231.345 80.0103L233.521 106.89L263.423 104.47L261.247 77.5897L231.345 80.0103ZM233.474 105.455L233.09 131.055L263.086 131.505L263.47 105.905L233.474 105.455ZM248.088 146.28H249.88V116.28H248.088V146.28ZM264.06 136.172L272.892 110.572L244.532 100.788L235.7 126.388L264.06 136.172ZM272.451 111.699L284.227 84.8191L256.749 72.7808L244.973 99.6609L272.451 111.699ZM270.488 93.8H288.28V63.8H270.488V93.8ZM274.667 72.4993L243.563 139.699L270.789 152.301L301.893 85.1007L274.667 72.4993ZM257.176 131H235.544V161H257.176V131ZM291.341 140.624L279.818 150.227L279.87 150.289L279.922 150.351L291.341 140.624ZM285.837 114.384L300.796 115.492L300.796 115.492L285.837 114.384ZM286.733 108.24L301.325 111.714L301.368 111.532L301.407 111.349L286.733 108.24ZM297.997 85.2L287.476 74.5089L287.476 74.5089L297.997 85.2ZM335.373 82.128L344.926 70.5636L335.373 82.128ZM332.173 112.848L324.272 100.098L324.231 100.123L324.19 100.148L332.173 112.848ZM302.861 118.992L302.484 103.997L290.762 104.292L288.218 115.738L302.861 118.992ZM304.141 131.536L292.065 140.434L292.331 140.795L292.618 141.139L304.141 131.536ZM319.501 131.92L312.793 118.504L312.701 118.55L312.61 118.597L319.501 131.92ZM327.053 124.368L336.512 112.726L323.649 102.275L314.529 116.113L327.053 124.368ZM337.293 132.688L349.834 140.918L357.267 129.59L346.752 121.046L337.293 132.688ZM325.517 144.208L318.597 130.9L318.541 130.929L318.486 130.958L325.517 144.208ZM310.029 93.648L321.698 103.073L321.698 103.073L310.029 93.648ZM305.933 103.888L320.607 107.001L320.619 106.941L320.631 106.882L305.933 103.888ZM305.037 108.112L290.363 104.999L286.266 124.314L305.973 123.083L305.037 108.112ZM315.021 106.96L317.963 121.669L318.197 121.622L318.429 121.568L315.021 106.96ZM321.037 104.784L328.642 117.713L328.918 117.551L329.186 117.378L321.037 104.784ZM323.981 101.584L337.768 107.493L337.84 107.325L337.908 107.155L323.981 101.584ZM310.541 132.536C307.337 132.536 305.325 132.112 304.166 131.695C303.114 131.316 302.826 130.975 302.76 130.897L279.922 150.351C287.823 159.625 299.368 162.536 310.541 162.536V132.536ZM302.864 131.021C302.074 130.073 300.581 127.395 300.581 120.784H270.581C270.581 131.411 272.928 141.959 279.818 150.227L302.864 131.021ZM300.581 120.784C300.581 119.249 300.648 117.49 300.796 115.492L270.878 113.276C270.685 115.886 270.581 118.394 270.581 120.784H300.581ZM300.796 115.492C300.922 113.794 301.123 112.562 301.325 111.714L272.141 104.766C271.489 107.502 271.094 110.365 270.878 113.276L300.796 115.492ZM301.407 111.349C303.147 103.14 305.878 98.49 308.518 95.8911L287.476 74.5089C279.364 82.4914 274.586 93.2016 272.059 105.131L301.407 111.349ZM308.518 95.8911C310.57 93.8717 313.685 92.264 319.501 92.264V62.264C307.397 62.264 296.176 65.9469 287.476 74.5089L308.518 95.8911ZM319.501 92.264C323.755 92.264 325.314 93.275 325.82 93.6924L344.926 70.5636C337.581 64.4957 328.559 62.264 319.501 62.264V92.264ZM325.82 93.6924C325.934 93.7872 325.971 93.8374 325.973 93.8394C325.973 93.8401 325.985 93.8531 326.008 93.9083C326.051 94.0067 326.261 94.5465 326.261 95.824H356.261C356.261 86.2441 352.862 77.1192 344.926 70.5636L325.82 93.6924ZM326.261 95.824C326.261 97.6022 325.918 98.4097 325.756 98.712C325.618 98.9718 325.303 99.4587 324.272 100.098L340.075 125.598C350.885 118.899 356.261 108.2 356.261 95.824H326.261ZM324.19 100.148C321.778 101.665 315.431 103.671 302.484 103.997L303.238 133.987C317.427 133.63 330.621 131.541 340.156 125.548L324.19 100.148ZM288.218 115.738C287.845 117.417 287.641 119.105 287.521 120.658L317.433 122.958C317.457 122.648 317.481 122.432 317.499 122.299C317.518 122.161 317.525 122.152 317.504 122.246L288.218 115.738ZM287.521 120.658C287.422 121.944 287.349 123.267 287.349 124.496H317.349C317.349 124.359 317.361 123.891 317.433 122.958L287.521 120.658ZM287.349 124.496C287.349 129.185 288.208 135.199 292.065 140.434L316.217 122.638C316.974 123.666 317.249 124.529 317.333 124.86C317.412 125.168 317.349 125.101 317.349 124.496H287.349ZM292.618 141.139C298.184 147.818 306.154 148.84 311.053 148.84V118.84C310.448 118.84 310.746 118.758 311.572 119.034C312.497 119.342 314.169 120.139 315.664 121.933L292.618 141.139ZM311.053 148.84C316.286 148.84 321.518 147.764 326.392 145.243L312.61 118.597C312.534 118.636 312.135 118.84 311.053 118.84V148.84ZM326.209 145.336C332.108 142.387 336.405 137.436 339.577 132.623L314.529 116.113C313.711 117.354 313.086 118.082 312.702 118.465C312.317 118.85 312.329 118.736 312.793 118.504L326.209 145.336ZM317.594 136.01L327.834 144.33L346.752 121.046L336.512 112.726L317.594 136.01ZM324.752 124.458C322.093 128.51 319.915 130.214 318.597 130.9L332.437 157.516C339.652 153.764 345.325 147.788 349.834 140.918L324.752 124.458ZM318.486 130.958C316.907 131.796 314.439 132.536 310.541 132.536V162.536C318.248 162.536 325.765 161.057 332.548 157.458L318.486 130.958ZM317.325 75.32C310.121 75.32 303.242 78.1783 298.36 84.2229L321.698 103.073C321.232 103.65 320.464 104.324 319.422 104.799C318.413 105.26 317.617 105.32 317.325 105.32V75.32ZM298.36 84.2229C294.38 89.1499 292.378 95.2809 291.235 100.894L320.631 106.882C320.968 105.228 321.316 104.122 321.588 103.443C321.867 102.747 321.969 102.737 321.698 103.073L298.36 84.2229ZM291.259 100.775L290.363 104.999L319.711 111.225L320.607 107.001L291.259 100.775ZM305.973 123.083C310.408 122.806 314.478 122.366 317.963 121.669L312.079 92.2513C310.444 92.5784 307.858 92.9064 304.101 93.1412L305.973 123.083ZM318.429 121.568C321.735 120.796 325.367 119.64 328.642 117.713L313.432 91.855C313.68 91.7087 313.695 91.7351 313.343 91.8624C313.004 91.9849 312.445 92.1582 311.613 92.3524L318.429 121.568ZM329.186 117.378C332.329 115.344 335.753 112.195 337.768 107.493L310.194 95.6752C311.185 93.3622 312.646 92.347 312.888 92.1904L329.186 117.378ZM337.908 107.155C339.205 103.912 339.749 100.587 339.749 97.36H309.749C309.749 97.2052 309.781 96.6963 310.054 96.0132L337.908 107.155ZM339.749 97.36C339.749 92.4918 338.426 86.138 333.214 81.1956C328.152 76.3948 321.919 75.32 317.325 75.32V105.32C317.68 105.32 315.16 105.419 312.572 102.964C309.834 100.369 309.749 97.5348 309.749 97.36H339.749ZM361.459 56.656V41.656H349.169L346.752 53.7062L361.459 56.656ZM404.339 58.96L398.309 72.6947L398.37 72.7212L398.43 72.7472L404.339 58.96ZM412.915 65.36L401.095 74.5946L401.166 74.686L401.239 74.7763L412.915 65.36ZM417.779 97.36L402.965 95.0033L402.943 95.145L402.923 95.287L417.779 97.36ZM415.987 107.984L430.635 111.215L430.667 111.071L430.696 110.926L415.987 107.984ZM410.739 123.728L397.178 117.317L397.13 117.419L397.084 117.521L410.739 123.728ZM402.419 135.76L412.887 146.503L412.891 146.5L402.419 135.76ZM390.387 143.312L385.036 129.299L384.993 129.315L384.95 129.332L390.387 143.312ZM343.539 146L328.832 143.05L325.232 161H343.539V146ZM384.499 129.616L389.071 143.902L389.239 143.849L389.406 143.791L384.499 129.616ZM390.131 125.904L379.256 115.573L379.117 115.719L378.982 115.87L390.131 125.904ZM394.099 119.12L380.088 113.763L380.044 113.878L380.002 113.994L394.099 119.12ZM397.171 108.24L411.834 111.403L411.851 111.323L411.867 111.242L397.171 108.24ZM399.603 96.336L384.945 93.1496L384.925 93.2414L384.907 93.3335L399.603 96.336ZM400.499 90.96L385.683 88.6206L385.622 89.0038L385.581 89.3897L400.499 90.96ZM398.067 75.6L386.067 84.6L386.248 84.8413L386.438 85.0751L398.067 75.6ZM375.923 72.016V57.016H363.636L361.217 69.0619L375.923 72.016ZM364.147 130.64L349.441 127.686L345.834 145.64H364.147V130.64ZM361.459 71.656H390.899V41.656H361.459V71.656ZM390.899 71.656C395.109 71.656 397.343 72.2707 398.309 72.6947L410.369 45.2253C404.337 42.5773 397.612 41.656 390.899 41.656V71.656ZM398.43 72.7472C399.987 73.4145 400.704 74.0942 401.095 74.5946L424.735 56.1253C420.86 51.1645 415.859 47.5775 410.248 45.1728L398.43 72.7472ZM401.239 74.7763C401.855 75.54 402.423 76.5816 402.803 78.1783L431.987 71.2297C430.661 65.6584 428.242 60.4706 424.591 55.9437L401.239 74.7763ZM402.803 78.1783C403.357 80.5056 403.675 83.1696 403.675 86.224H433.675C433.675 81.0864 433.14 76.0704 431.987 71.2297L402.803 78.1783ZM403.675 86.224C403.675 89.0762 403.443 92 402.965 95.0033L432.593 99.7167C433.31 95.2106 433.675 90.7105 433.675 86.224H403.675ZM402.923 95.287C402.449 98.6838 401.9 101.935 401.278 105.042L430.696 110.926C431.44 107.207 432.085 103.375 432.635 99.433L402.923 95.287ZM401.339 104.753C400.267 109.613 398.853 113.773 397.178 117.317L424.3 130.139C427.062 124.296 429.147 117.961 430.635 111.215L401.339 104.753ZM397.084 117.521C395.658 120.658 393.922 123.095 391.947 125.02L412.891 146.5C417.742 141.769 421.554 136.185 424.395 129.935L397.084 117.521ZM391.951 125.017C390.204 126.719 387.976 128.176 385.036 129.299L395.738 157.325C402.185 154.864 407.978 151.286 412.887 146.503L391.951 125.017ZM384.95 129.332C382.418 130.317 378.992 131 374.387 131V161C381.899 161 389.14 159.891 395.824 157.292L384.95 129.332ZM374.387 131H343.539V161H374.387V131ZM358.246 148.95L376.166 59.6058L346.752 53.7062L328.832 143.05L358.246 148.95ZM376.691 145.64C380.781 145.64 385.025 145.197 389.071 143.902L379.927 115.33C379.706 115.4 378.745 115.64 376.691 115.64V145.64ZM389.406 143.791C393.966 142.212 398.008 139.575 401.28 135.938L378.982 115.87C379.05 115.793 379.165 115.687 379.316 115.588C379.466 115.489 379.574 115.448 379.592 115.441L389.406 143.791ZM401.006 136.235C404.379 132.685 406.652 128.491 408.196 124.246L380.002 113.994C379.498 115.381 379.126 115.71 379.256 115.573L401.006 136.235ZM408.11 124.477C409.581 120.629 410.797 116.211 411.834 111.403L382.508 105.077C381.668 108.973 380.836 111.808 380.088 113.763L408.11 124.477ZM411.867 111.242L414.299 99.3385L384.907 93.3335L382.475 105.237L411.867 111.242ZM414.261 99.5224C414.778 97.1431 415.177 94.8019 415.417 92.5303L385.581 89.3897C385.479 90.3607 385.281 91.6035 384.945 93.1496L414.261 99.5224ZM415.315 93.2994C415.642 91.2341 415.883 89.0317 415.883 86.864H385.883C385.883 86.8575 385.883 86.999 385.852 87.3199C385.823 87.6344 385.771 88.0632 385.683 88.6206L415.315 93.2994ZM415.883 86.864C415.883 80.5395 414.874 72.4801 409.696 66.1249L386.438 85.0751C385.632 84.0854 385.537 83.4217 385.627 83.782C385.717 84.1416 385.883 85.096 385.883 86.864H415.883ZM410.067 66.6C404.216 58.7992 395.332 57.016 388.595 57.016V87.016C389.622 87.016 389.632 87.1629 389.047 86.9413C388.723 86.8189 388.231 86.5881 387.669 86.1811C387.097 85.7666 386.543 85.2348 386.067 84.6L410.067 66.6ZM388.595 57.016H375.923V87.016H388.595V57.016ZM361.217 69.0619L349.441 127.686L378.853 133.594L390.629 74.9701L361.217 69.0619ZM364.147 145.64H376.691V115.64H364.147V145.64ZM429.341 140.624L417.818 150.227L417.87 150.289L417.922 150.351L429.341 140.624ZM423.837 114.384L438.796 115.492L438.796 115.492L423.837 114.384ZM424.733 108.24L439.325 111.714L439.368 111.532L439.407 111.349L424.733 108.24ZM435.997 85.2L425.476 74.5089L425.476 74.5089L435.997 85.2ZM473.373 82.128L482.926 70.5636L473.373 82.128ZM470.173 112.848L462.272 100.098L462.231 100.123L462.19 100.148L470.173 112.848ZM440.861 118.992L440.484 103.997L428.762 104.292L426.218 115.738L440.861 118.992ZM442.141 131.536L430.065 140.434L430.331 140.795L430.618 141.139L442.141 131.536ZM457.501 131.92L450.793 118.504L450.701 118.55L450.61 118.597L457.501 131.92ZM465.053 124.368L474.512 112.726L461.649 102.275L452.529 116.113L465.053 124.368ZM475.293 132.688L487.834 140.918L495.267 129.59L484.752 121.046L475.293 132.688ZM463.517 144.208L456.597 130.9L456.541 130.929L456.486 130.958L463.517 144.208ZM448.029 93.648L459.698 103.073L459.698 103.073L448.029 93.648ZM443.933 103.888L458.607 107.001L458.619 106.941L458.631 106.882L443.933 103.888ZM443.037 108.112L428.363 104.999L424.266 124.314L443.973 123.083L443.037 108.112ZM453.021 106.96L455.963 121.669L456.197 121.622L456.429 121.568L453.021 106.96ZM459.037 104.784L466.642 117.713L466.918 117.551L467.186 117.378L459.037 104.784ZM461.981 101.584L475.768 107.493L475.84 107.325L475.908 107.155L461.981 101.584ZM448.541 132.536C445.337 132.536 443.325 132.112 442.166 131.695C441.114 131.316 440.826 130.975 440.76 130.897L417.922 150.351C425.823 159.625 437.368 162.536 448.541 162.536V132.536ZM440.864 131.021C440.074 130.073 438.581 127.395 438.581 120.784H408.581C408.581 131.411 410.928 141.959 417.818 150.227L440.864 131.021ZM438.581 120.784C438.581 119.249 438.648 117.49 438.796 115.492L408.878 113.276C408.685 115.886 408.581 118.394 408.581 120.784H438.581ZM438.796 115.492C438.922 113.794 439.123 112.562 439.325 111.714L410.141 104.766C409.489 107.502 409.094 110.365 408.878 113.276L438.796 115.492ZM439.407 111.349C441.147 103.14 443.878 98.49 446.518 95.8911L425.476 74.5089C417.364 82.4914 412.586 93.2016 410.059 105.131L439.407 111.349ZM446.518 95.8911C448.57 93.8717 451.685 92.264 457.501 92.264V62.264C445.397 62.264 434.176 65.9469 425.476 74.5089L446.518 95.8911ZM457.501 92.264C461.755 92.264 463.314 93.275 463.82 93.6924L482.926 70.5636C475.581 64.4957 466.559 62.264 457.501 62.264V92.264ZM463.82 93.6924C463.934 93.7872 463.971 93.8374 463.973 93.8394C463.973 93.8401 463.985 93.8531 464.008 93.9083C464.051 94.0067 464.261 94.5465 464.261 95.824H494.261C494.261 86.2441 490.862 77.1192 482.926 70.5636L463.82 93.6924ZM464.261 95.824C464.261 97.6022 463.918 98.4097 463.756 98.712C463.618 98.9718 463.303 99.4587 462.272 100.098L478.075 125.598C488.885 118.899 494.261 108.2 494.261 95.824H464.261ZM462.19 100.148C459.778 101.665 453.431 103.671 440.484 103.997L441.238 133.987C455.427 133.63 468.621 131.541 478.156 125.548L462.19 100.148ZM426.218 115.738C425.845 117.417 425.641 119.105 425.521 120.658L455.433 122.958C455.457 122.648 455.481 122.432 455.499 122.299C455.518 122.161 455.525 122.152 455.504 122.246L426.218 115.738ZM425.521 120.658C425.422 121.944 425.349 123.267 425.349 124.496H455.349C455.349 124.359 455.361 123.891 455.433 122.958L425.521 120.658ZM425.349 124.496C425.349 129.185 426.208 135.199 430.065 140.434L454.217 122.638C454.974 123.666 455.249 124.529 455.333 124.86C455.412 125.168 455.349 125.101 455.349 124.496H425.349ZM430.618 141.139C436.184 147.818 444.154 148.84 449.053 148.84V118.84C448.448 118.84 448.746 118.758 449.572 119.034C450.497 119.342 452.169 120.139 453.664 121.933L430.618 141.139ZM449.053 148.84C454.286 148.84 459.518 147.764 464.392 145.243L450.61 118.597C450.534 118.636 450.135 118.84 449.053 118.84V148.84ZM464.209 145.336C470.108 142.387 474.405 137.436 477.577 132.623L452.529 116.113C451.711 117.354 451.086 118.082 450.702 118.465C450.317 118.85 450.329 118.736 450.793 118.504L464.209 145.336ZM455.594 136.01L465.834 144.33L484.752 121.046L474.512 112.726L455.594 136.01ZM462.752 124.458C460.093 128.51 457.915 130.214 456.597 130.9L470.437 157.516C477.652 153.764 483.325 147.788 487.834 140.918L462.752 124.458ZM456.486 130.958C454.907 131.796 452.439 132.536 448.541 132.536V162.536C456.248 162.536 463.765 161.057 470.548 157.458L456.486 130.958ZM455.325 75.32C448.121 75.32 441.242 78.1783 436.36 84.2229L459.698 103.073C459.232 103.65 458.464 104.324 457.422 104.799C456.413 105.26 455.617 105.32 455.325 105.32V75.32ZM436.36 84.2229C432.38 89.1499 430.378 95.2809 429.235 100.894L458.631 106.882C458.968 105.228 459.316 104.122 459.588 103.443C459.867 102.747 459.969 102.737 459.698 103.073L436.36 84.2229ZM429.259 100.775L428.363 104.999L457.711 111.225L458.607 107.001L429.259 100.775ZM443.973 123.083C448.408 122.806 452.478 122.366 455.963 121.669L450.079 92.2513C448.444 92.5784 445.858 92.9064 442.101 93.1412L443.973 123.083ZM456.429 121.568C459.735 120.796 463.367 119.64 466.642 117.713L451.432 91.855C451.68 91.7087 451.695 91.7351 451.343 91.8624C451.004 91.9849 450.445 92.1582 449.613 92.3524L456.429 121.568ZM467.186 117.378C470.329 115.344 473.753 112.195 475.768 107.493L448.194 95.6752C449.185 93.3622 450.646 92.347 450.888 92.1904L467.186 117.378ZM475.908 107.155C477.205 103.912 477.749 100.587 477.749 97.36H447.749C447.749 97.2052 447.781 96.6963 448.054 96.0132L475.908 107.155ZM477.749 97.36C477.749 92.4918 476.426 86.138 471.214 81.1956C466.152 76.3948 459.919 75.32 455.325 75.32V105.32C455.68 105.32 453.16 105.419 450.572 102.964C447.834 100.369 447.749 97.5348 447.749 97.36H477.749ZM480.259 135.76L470.052 124.768L461.08 133.1L467.446 143.559L480.259 135.76ZM491.011 125.776L504.258 118.739L495.103 101.507L480.804 114.784L491.011 125.776ZM496.259 131.92L504.58 119.439L504.58 119.439L496.259 131.92ZM512.899 132.048L522.194 143.821L522.194 143.821L512.899 132.048ZM513.795 122.704L503.705 133.803L503.944 134.02L504.192 134.227L513.795 122.704ZM509.315 120.4L504.387 134.567L504.479 134.599L504.572 134.63L509.315 120.4ZM503.427 118.352L508.355 104.185L508.344 104.181L508.334 104.177L503.427 118.352ZM497.411 115.792L489.969 128.816L490.207 128.952L490.451 129.079L497.411 115.792ZM492.803 112.208L481.86 122.467L481.86 122.467L492.803 112.208ZM489.859 107.344L503.956 102.218L503.956 102.218L489.859 107.344ZM490.371 91.6L504.468 96.7261L504.468 96.7261L490.371 91.6ZM495.107 84.176L505.714 94.7826L505.714 94.7826L495.107 84.176ZM503.171 79.184L508.357 93.2591L508.456 93.2224L508.556 93.1842L503.171 79.184ZM537.091 87.888L547.298 98.8799L556.942 89.9244L549.317 79.1973L537.091 87.888ZM526.339 97.872L513.935 106.307L523.752 120.744L536.546 108.864L526.339 97.872ZM521.091 92.88L512.897 105.444L513.21 105.648L513.533 105.837L521.091 92.88ZM507.395 92.752L498.186 80.9117L498.021 81.0401L497.859 81.173L507.395 92.752ZM506.755 101.84L515.755 89.84L515.755 89.84L506.755 101.84ZM511.107 104.016L505.981 118.113L506.08 118.149L506.179 118.183L511.107 104.016ZM516.995 106.064L512.067 120.231L512.123 120.251L512.179 120.27L516.995 106.064ZM528.259 112.464L539.044 102.039L539.044 102.039L528.259 112.464ZM530.179 133.072L516.252 127.501L516.209 127.608L516.168 127.715L530.179 133.072ZM525.059 140.624L514.868 129.618L514.868 129.618L525.059 140.624ZM516.355 145.744L521.31 159.902L521.41 159.867L521.509 159.831L516.355 145.744ZM504.323 132.536C496.923 132.536 494.485 130.282 493.072 127.961L467.446 143.559C475.591 156.94 489.195 162.536 504.323 162.536V132.536ZM490.466 146.752L501.218 136.768L480.804 114.784L470.052 124.768L490.466 146.752ZM477.764 132.813C480.088 137.187 483.359 141.348 487.939 144.401L504.58 119.439C505.063 119.762 504.836 119.826 504.258 118.739L477.764 132.813ZM487.938 144.401C493.43 148.062 499.697 148.968 504.963 148.968V118.968C504.475 118.968 504.104 118.946 503.837 118.918C503.57 118.891 503.434 118.861 503.407 118.855C503.341 118.839 503.838 118.945 504.58 119.439L487.938 144.401ZM504.963 148.968C509.674 148.968 516.543 148.282 522.194 143.821L503.604 120.275C504.94 119.22 506.029 118.943 506.172 118.909C506.324 118.872 505.992 118.968 504.963 118.968V148.968ZM522.194 143.821C527.866 139.343 530.331 132.964 530.331 126.672H500.331C500.331 126.054 500.445 124.913 501.056 123.561C501.69 122.16 502.629 121.045 503.604 120.275L522.194 143.821ZM530.331 126.672C530.331 122.055 528.921 115.783 523.398 111.181L504.192 134.227C502.622 132.919 501.561 131.308 500.958 129.751C500.396 128.297 500.331 127.16 500.331 126.672H530.331ZM523.885 111.605C520.681 108.692 516.888 107.113 514.058 106.17L504.572 134.63C505.062 134.794 505.206 134.876 505.111 134.827C505.054 134.798 504.896 134.714 504.667 134.561C504.439 134.409 504.101 134.163 503.705 133.803L523.885 111.605ZM514.243 106.233L508.355 104.185L498.499 132.519L504.387 134.567L514.243 106.233ZM508.334 104.177C506.711 103.616 505.407 103.047 504.371 102.505L490.451 129.079C492.999 130.414 495.705 131.552 498.52 132.527L508.334 104.177ZM504.853 102.768C504.227 102.411 503.904 102.118 503.746 101.949L481.86 122.467C484.262 125.029 487.011 127.125 489.969 128.816L504.853 102.768ZM503.746 101.949C503.83 102.038 503.896 102.129 503.94 102.201C503.982 102.271 503.981 102.286 503.956 102.218L475.762 112.47C477.091 116.124 479.101 119.524 481.86 122.467L503.746 101.949ZM503.956 102.218C504 102.338 503.966 102.286 503.923 102.001C503.88 101.716 503.835 101.247 503.835 100.56H473.835C473.835 104.42 474.323 108.514 475.762 112.47L503.956 102.218ZM503.835 100.56C503.835 99.0562 504.073 97.8123 504.468 96.7261L476.274 86.4739C474.621 91.0197 473.835 95.7492 473.835 100.56H503.835ZM504.468 96.7261C504.738 95.9846 505.119 95.3771 505.714 94.7826L484.5 73.5694C480.828 77.2416 478.052 81.5834 476.274 86.4739L504.468 96.7261ZM505.714 94.7826C506.104 94.3923 506.855 93.8124 508.357 93.2591L497.985 65.1089C493.002 66.9449 488.377 69.6931 484.5 73.5694L505.714 94.7826ZM508.556 93.1842C509.802 92.7047 511.789 92.264 514.819 92.264V62.264C508.974 62.264 503.196 63.1033 497.786 65.1838L508.556 93.1842ZM514.819 92.264C520.502 92.264 523.04 94.0113 524.865 96.5787L549.317 79.1973C541.073 67.5993 528.762 62.264 514.819 62.264V92.264ZM526.884 76.8961L516.132 86.8801L536.546 108.864L547.298 98.8799L526.884 76.8961ZM538.743 89.4374C536.147 85.6197 532.795 82.3418 528.649 79.9233L513.533 105.837C513.534 105.837 513.553 105.847 513.601 105.892C513.651 105.941 513.769 106.062 513.935 106.307L538.743 89.4374ZM529.285 80.3158C524.362 77.1051 518.911 75.96 513.795 75.96V105.96C514.15 105.96 514.181 106 513.978 105.946C513.754 105.887 513.356 105.744 512.897 105.444L529.285 80.3158ZM513.795 75.96C509.046 75.96 503.234 76.9855 498.186 80.9117L516.604 104.592C514.628 106.129 513.083 105.96 513.795 105.96V75.96ZM497.859 81.173C492.045 85.9614 490.219 92.5759 490.219 98.128H520.219C520.219 98.4217 520.177 99.3603 519.667 100.62C519.12 101.971 518.191 103.293 516.931 104.331L497.859 81.173ZM490.219 98.128C490.219 102.849 491.77 109.351 497.755 113.84L515.755 89.84C517.497 91.1465 518.74 92.8528 519.463 94.6007C520.135 96.225 520.219 97.5317 520.219 98.128H490.219ZM497.755 113.84C500.428 115.845 503.401 117.175 505.981 118.113L516.233 89.9191C515.716 89.7311 515.429 89.5986 515.319 89.5436C515.269 89.5186 515.285 89.524 515.353 89.5652C515.42 89.6058 515.561 89.6948 515.755 89.84L497.755 113.84ZM506.179 118.183L512.067 120.231L521.923 91.8965L516.035 89.8485L506.179 118.183ZM512.179 120.27C515.977 121.557 517.277 122.685 517.474 122.889L539.044 102.039C534.292 97.1228 528.082 93.9841 521.811 91.858L512.179 120.27ZM517.474 122.889C517.274 122.683 517.114 122.467 516.997 122.27C516.882 122.077 516.836 121.95 516.829 121.929C516.822 121.907 516.971 122.346 516.971 123.472H546.971C546.971 116.168 545.042 108.243 539.044 102.039L517.474 122.889ZM516.971 123.472C516.971 125.095 516.695 126.393 516.252 127.501L544.106 138.643C546.052 133.778 546.971 128.676 546.971 123.472H516.971ZM516.168 127.715C515.891 128.441 515.501 129.031 514.868 129.618L535.25 151.63C539.225 147.95 542.249 143.506 544.19 138.429L516.168 127.715ZM514.868 129.618C514.268 130.173 513.175 130.935 511.201 131.657L521.509 159.831C526.532 157.993 531.242 155.341 535.25 151.63L514.868 129.618ZM511.4 131.586C509.948 132.094 507.684 132.536 504.323 132.536V162.536C510.178 162.536 515.936 161.783 521.31 159.902L511.4 131.586ZM558.73 51.28V36.28H546.433L544.021 48.3383L558.73 51.28ZM575.754 51.28L590.463 54.2217L594.051 36.28H575.754V51.28ZM566.41 98L580.856 102.039L581.008 101.495L581.119 100.942L566.41 98ZM563.082 109.904L548.636 105.865L543.313 124.904H563.082V109.904ZM564.874 109.904V124.904H573.304L577.687 117.703L564.874 109.904ZM572.042 98.128L560.487 88.5629L559.794 89.4003L559.229 90.3288L572.042 98.128ZM588.042 78.8V63.8H580.986L576.487 69.2349L588.042 78.8ZM607.754 78.8L618.968 88.7622L641.144 63.8H607.754V78.8ZM583.306 106.32L572.092 96.3578L566.922 102.178L568.705 109.756L583.306 106.32ZM589.45 132.432L574.849 135.868L577.57 147.432H589.45V132.432ZM596.874 132.432L611.588 135.347L615.137 117.432H596.874V132.432ZM594.186 146V161H606.506L608.9 148.915L594.186 146ZM577.93 144.08L568.635 155.853L568.781 155.968L568.93 156.08L577.93 144.08ZM574.346 137.296L559.725 140.648L559.737 140.701L559.75 140.753L574.346 137.296ZM569.738 117.2L584.359 113.848L578.049 86.3309L558.777 106.96L569.738 117.2ZM560.65 126.928L549.689 116.688L546.785 119.797L545.945 123.967L560.65 126.928ZM556.81 146V161H569.091L571.515 148.961L556.81 146ZM539.786 146L525.077 143.058L521.489 161H539.786V146ZM558.73 66.28H575.754V36.28H558.73V66.28ZM561.045 48.3383L551.701 95.0583L581.119 100.942L590.463 54.2217L561.045 48.3383ZM551.964 93.9613L548.636 105.865L577.528 113.943L580.856 102.039L551.964 93.9613ZM563.082 124.904H564.874V94.904H563.082V124.904ZM577.687 117.703L584.855 105.927L559.229 90.3288L552.061 102.105L577.687 117.703ZM583.597 107.693L599.597 88.3651L576.487 69.2349L560.487 88.5629L583.597 107.693ZM588.042 93.8H607.754V63.8H588.042V93.8ZM596.54 68.8378L572.092 96.3578L594.52 116.282L618.968 88.7622L596.54 68.8378ZM568.705 109.756L574.849 135.868L604.051 128.996L597.907 102.884L568.705 109.756ZM589.45 147.432H596.874V117.432H589.45V147.432ZM582.16 129.517L579.472 143.085L608.9 148.915L611.588 135.347L582.16 129.517ZM594.186 131H584.97V161H594.186V131ZM584.97 131C583.962 131 585.183 130.769 586.93 132.08L568.93 156.08C574.091 159.951 580.005 161 584.97 161V131ZM587.225 132.307C588.396 133.231 588.928 134.128 589.081 134.417C589.224 134.688 589.117 134.576 588.942 133.839L559.75 140.753C560.853 145.412 563.165 151.535 568.635 155.853L587.225 132.307ZM588.967 133.944L584.359 113.848L555.117 120.552L559.725 140.648L588.967 133.944ZM558.777 106.96L549.689 116.688L571.611 137.168L580.699 127.44L558.777 106.96ZM545.945 123.967L542.105 143.039L571.515 148.961L575.355 129.889L545.945 123.967ZM556.81 131H539.786V161H556.81V131ZM554.495 148.942L573.439 54.2217L544.021 48.3383L525.077 143.058L554.495 148.942Z" fill="white" mask="url(#path-1-outside-1_1_5)"/>
</g>
<defs>
<filter id="filter0_d_1_5" x="53.208" y="51.28" width="558.546" height="104.256" filterUnits="userSpaceOnUse" color-interpolation-filters="sRGB">
<feFlood flood-opacity="0" result="BackgroundImageFix"/>
<feColorMatrix in="SourceAlpha" type="matrix" values="0 0 0 0 0 0 0 0 0 0 0 0 0 0 0 0 0 0 127 0" result="hardAlpha"/>
<feOffset dy="4"/>
<feGaussianBlur stdDeviation="2"/>
<feComposite in2="hardAlpha" operator="out"/>
<feColorMatrix type="matrix" values="0 0 0 0 0 0 0 0 0 0 0 0 0 0 0 0 0 0 0.25 0"/>
<feBlend mode="normal" in2="BackgroundImageFix" result="effect1_dropShadow_1_5"/>
<feBlend mode="normal" in="SourceGraphic" in2="effect1_dropShadow_1_5" result="shape"/>
</filter>
</defs>
</svg>
